<svg width="157" height="31" viewBox="0 0 157 31" fill="none" xmlns="http://www.w3.org/2000/svg">
<path d="M41.2785 1.17535V9.61776H43.2932L51.6156 1.15137H54.5657L45.3078 10.4812L55.6929 20.5065H52.551L43.2932 11.4405H41.2785V20.5065H39V1.15137H41.2785V1.17535Z" fill="#057094"/>
<path d="M59.6261 1.17529V20.5305H57.3477V1.17529H59.6261Z" fill="#057094"/>
<path d="M65.8136 1.17529V18.4918H76.2467V20.5305H63.5352V1.17529H65.8136Z" fill="#057094"/>
<path d="M82.0036 3.19002V20.5305H79.7011V3.19002H73.1055V1.15137H88.5512V3.19002H82.0036Z" fill="#057094"/>
<path d="M129.347 1.17529V20.5305H125.582L117.091 7.36319L115.7 5.20462L115.005 4.12534L114.333 3.04605H114.285L114.309 3.76558L114.333 4.50909V5.94813V20.5544H112.055V1.19927H115.796L123.207 12.7356L125.126 15.7816L126.085 17.2926L127.045 18.8036H127.093L127.069 18.0841L127.045 17.3406V15.9015V1.19927H129.347V1.17529Z" fill="#057094"/>
<path d="M147.098 6.42779H144.82C144.82 4.86883 144.556 3.88548 144.004 3.45376C143.453 3.02205 142.182 2.83017 140.167 2.83017C137.769 2.83017 136.234 3.02205 135.538 3.42978C134.842 3.83751 134.507 4.72492 134.507 6.116C134.507 7.67496 134.771 8.63433 135.322 8.9701C135.874 9.30588 137.481 9.54573 140.167 9.66565C143.333 9.80955 145.324 10.1693 146.187 10.8169C147.05 11.4405 147.458 12.8795 147.458 15.0621C147.458 17.4365 146.954 18.9955 145.971 19.691C144.988 20.3865 142.805 20.7463 139.447 20.7463C136.521 20.7463 134.579 20.3865 133.619 19.691C132.66 18.9955 132.18 17.5564 132.18 15.4218L132.156 14.5584H134.435V15.0381C134.435 16.7649 134.723 17.8442 135.274 18.252C135.826 18.6837 137.241 18.8755 139.543 18.8755C142.158 18.8755 143.789 18.6597 144.388 18.252C144.988 17.8442 145.3 16.717 145.3 14.8942C145.3 13.719 145.084 12.9275 144.676 12.5437C144.268 12.16 143.405 11.9201 142.11 11.8482L139.735 11.7283L137.481 11.6084C134.051 11.3925 132.324 9.68963 132.324 6.49974C132.324 4.29321 132.828 2.83018 133.835 2.08667C134.842 1.34316 136.833 0.983398 139.807 0.983398C142.829 0.983398 144.82 1.31918 145.731 2.01472C146.643 2.68627 147.098 4.1493 147.098 6.42779Z" fill="#057094"/>
<path d="M108.627 9.6656L99.4647 0.503666C98.8171 -0.167889 97.7378 -0.167889 97.0902 0.503666L87.9283 9.6656C87.2807 10.3372 87.2568 11.3925 87.9283 12.04L97.0902 21.2019C97.7618 21.8735 98.8171 21.8735 99.4647 21.2019L108.627 12.04C109.298 11.3925 109.298 10.3132 108.627 9.6656ZM105.533 11.9921L99.4407 18.084C99.1289 18.3958 98.7212 18.5637 98.2894 18.5637C97.8577 18.5637 97.45 18.3958 97.1382 18.084L91.0462 11.9921C90.7344 11.6803 90.5666 11.2725 90.5666 10.8408C90.5666 10.4091 90.7344 10.0014 91.0462 9.68958L97.1382 3.59761C97.7618 2.97403 98.8171 2.97403 99.4407 3.59761L105.533 9.68958C106.156 10.3371 106.156 11.3685 105.533 11.9921Z" fill="#057094"/>
<path d="M41.6622 29.1884H42.094V29.3323C42.094 29.8599 41.998 30.1717 41.8301 30.3156C41.6622 30.4355 41.2065 30.5075 40.487 30.5075C39.8394 30.5075 39.4317 30.3876 39.2638 30.1717C39.0959 29.9319 39 29.4042 39 28.5648C39 27.8932 39.024 27.4855 39.048 27.3176C39.0959 27.1497 39.1919 27.0058 39.3837 26.8619C39.5996 26.694 40.0553 26.6221 40.7748 26.6221C41.2545 26.6221 41.5903 26.694 41.7582 26.8379C41.9261 26.9818 42.022 27.2696 42.022 27.7014V27.7973H41.5903V27.6774C41.5903 27.3656 41.5423 27.1737 41.4464 27.0778C41.3504 26.9818 41.1106 26.9578 40.7748 26.9578C40.1512 26.9578 39.7915 27.0058 39.6476 27.1018C39.5037 27.1977 39.4557 27.4855 39.4557 27.9412C39.4557 29.0205 39.5037 29.6441 39.5996 29.812C39.6955 30.0038 40.0073 30.0998 40.535 30.0998C41.0387 30.0998 41.3504 30.0518 41.4704 29.9798C41.5903 29.9079 41.6622 29.692 41.6622 29.3802V29.1884Z" fill="#888B8D"/>
<path d="M42.8359 30.46V26.6465H44.6587C45.0665 26.6465 45.3543 26.7184 45.5222 26.8863C45.69 27.0542 45.762 27.318 45.762 27.7258C45.762 28.0855 45.714 28.3254 45.6181 28.4693C45.5222 28.6132 45.3543 28.7091 45.0904 28.7331C45.4982 28.7571 45.6901 28.9969 45.6901 29.4766V30.46H45.2583V29.5725C45.2583 29.1168 45.0665 28.901 44.6827 28.901H44.5388H43.2437V30.436H42.8359V30.46ZM43.2677 28.5412H44.5148C44.8506 28.5412 45.0665 28.4933 45.1864 28.3973C45.3063 28.3014 45.3543 28.1095 45.3543 27.8457C45.3543 27.5099 45.3063 27.2701 45.2104 27.1741C45.1144 27.0782 44.9226 27.0062 44.6347 27.0062H43.2437V28.5412H43.2677Z" fill="#888B8D"/>
<path d="M48.9786 29.644H47.0599L46.7721 30.4595H46.3164L47.7075 26.646H48.3071L49.7222 30.4595H49.2665L48.9786 29.644ZM48.8587 29.3082L48.0193 26.9818L47.1798 29.3082H48.8587Z" fill="#888B8D"/>
<path d="M50.7989 27.0062V28.3254H52.6457V28.6851H50.7989V30.436H50.3672V26.6465H52.6936V27.0062H50.7989Z" fill="#888B8D"/>
<path d="M54.733 27.0302V30.436H54.3013V27.0302H53.0781V26.6465H55.9802V27.0542H54.733V27.0302Z" fill="#888B8D"/>
<path d="M57.0372 26.646V30.4595H56.6055V26.646H57.0372Z" fill="#888B8D"/>
<path d="M61.2808 26.6465V30.46H60.5853L58.9783 27.8697L58.7145 27.438L58.5946 27.2221L58.4747 27.0062V27.1502V27.2941V27.5819V30.46H58.043V26.6465H58.7385L60.1296 28.925L60.4893 29.5246L60.6812 29.8124L60.8491 30.1002V29.9563V29.8124V29.5246V26.6465H61.2808Z" fill="#888B8D"/>
<path d="M63.6092 28.5648H65.2401C65.2401 28.6608 65.2401 28.8047 65.2401 28.9726C65.2401 29.6681 65.1442 30.0758 64.9763 30.2437C64.8084 30.4116 64.3767 30.4836 63.6572 30.4836C62.9856 30.4836 62.5539 30.3876 62.362 30.1958C62.1702 30.0039 62.0742 29.5722 62.0742 28.9006V28.349V28.0132C62.0742 27.4616 62.1702 27.0778 62.386 26.886C62.6019 26.6941 63.0336 26.5981 63.6812 26.5981C64.3287 26.5981 64.7365 26.6701 64.9283 26.79C65.1202 26.9099 65.2161 27.1738 65.2161 27.6055V27.7494H64.8324V27.6535C64.8324 27.3417 64.7604 27.1498 64.6405 27.0778C64.5206 27.0059 64.1848 26.9579 63.6332 26.9579C63.1295 26.9579 62.8177 27.0059 62.6978 27.1258C62.5779 27.2457 62.5059 27.5335 62.5059 28.0132V28.5169V29.0685C62.5059 29.5482 62.5779 29.836 62.7218 29.9559C62.8657 30.0758 63.2255 30.1238 63.8251 30.1238C64.2808 30.1238 64.5686 30.0758 64.6885 29.9559C64.8084 29.86 64.8564 29.5722 64.8564 29.1405C64.8564 29.1165 64.8564 29.0205 64.8324 28.9006H63.6332V28.5648H63.6092Z" fill="#888B8D"/>
<path d="M67.9981 27.0062V28.3014H69.9408V28.6611H67.9981V30.0762H70.0128V30.436H67.5664V26.6465H70.0128V27.0062H67.9981Z" fill="#888B8D"/>
<path d="M74.066 26.646V30.4595H73.3704L71.7635 27.8692L71.4997 27.4375L71.3798 27.2216L71.2598 27.0058V27.1497V27.2936V27.5814V30.4595H70.8281V26.646H71.5237L72.9147 28.9245L73.2745 29.5241L73.4664 29.8119L73.6343 30.0997V29.9558V29.8119V29.5241V26.646H74.066Z" fill="#888B8D"/>
<path d="M76.3664 27.0297V30.4355H75.9347V27.0297H74.6875V26.646H77.5896V27.0537H76.3664V27.0297Z" fill="#888B8D"/>
<path d="M78.2383 30.46V26.6465H80.0611C80.4688 26.6465 80.7566 26.7184 80.9245 26.8863C81.0924 27.0542 81.1643 27.318 81.1643 27.7258C81.1643 28.0855 81.1164 28.3254 81.0204 28.4693C80.9245 28.6132 80.7566 28.7091 80.4928 28.7331C80.9005 28.7571 81.0924 28.9969 81.0924 29.4766V30.46H80.6607V29.5725C80.6607 29.1168 80.4688 28.901 80.0851 28.901H79.9412H78.646V30.436H78.2383V30.46ZM78.67 28.5412H79.9172C80.2529 28.5412 80.4688 28.4933 80.5887 28.3973C80.7086 28.3014 80.7566 28.1095 80.7566 27.8457C80.7566 27.5099 80.7086 27.2701 80.6127 27.1741C80.5168 27.0782 80.3249 27.0062 80.0371 27.0062H78.646V28.5412H78.67Z" fill="#888B8D"/>
<path d="M82.3145 27.0058V28.3009H84.2572V28.6607H82.3145V30.0757H84.3292V30.4355H81.8828V26.646H84.3292V27.0058H82.3145Z" fill="#888B8D"/>
<path d="M85.1445 30.4595V26.646H86.7515H86.8954C87.3271 26.646 87.6149 26.7179 87.7828 26.8858C87.9267 27.0537 88.0226 27.3655 88.0226 27.8212C88.0226 28.2529 87.9507 28.5647 87.7828 28.7086C87.6149 28.8765 87.3031 28.9485 86.8714 28.9485H86.7035H85.6002V30.4595H85.1445ZM85.5762 28.5887H86.5836C87.0153 28.5887 87.2791 28.5407 87.399 28.4688C87.519 28.3729 87.5909 28.181 87.5909 27.8692C87.5909 27.5094 87.5429 27.2696 87.471 27.1736C87.399 27.0777 87.2072 27.0297 86.8954 27.0297H86.7275H85.5762V28.5887Z" fill="#888B8D"/>
<path d="M88.7656 30.46V26.6465H90.5884C90.9961 26.6465 91.284 26.7184 91.4518 26.8863C91.6197 27.0542 91.6917 27.318 91.6917 27.7258C91.6917 28.0855 91.6437 28.3254 91.5478 28.4693C91.4518 28.6132 91.284 28.7091 91.0201 28.7331C91.4279 28.7571 91.6197 28.9969 91.6197 29.4766V30.46H91.212V29.5725C91.212 29.1168 91.0201 28.901 90.6364 28.901H90.4925H89.1973V30.436H88.7656V30.46ZM89.1973 28.5412H90.4445C90.7803 28.5412 90.9962 28.4933 91.1161 28.3973C91.236 28.3014 91.284 28.1095 91.284 27.8457C91.284 27.5099 91.236 27.2701 91.1401 27.1741C91.0441 27.0782 90.8522 27.0062 90.5644 27.0062H89.1734V28.5412H89.1973Z" fill="#888B8D"/>
<path d="M92.8458 27.0062V28.3014H94.7885V28.6611H92.8458V30.0762H94.8604V30.436H92.4141V26.6465H94.8604V27.0062H92.8458Z" fill="#888B8D"/>
<path d="M98.9371 26.6465V30.46H98.2415L96.6346 27.8697L96.3708 27.438L96.2509 27.2221L96.1309 27.0062V27.1502V27.2941V27.5819V30.46H95.6992V26.6465H96.3948L97.7858 28.925L98.1456 29.5246L98.3375 29.8124L98.5054 30.1002V29.9563V29.8124V29.5246V26.6465H98.9371Z" fill="#888B8D"/>
<path d="M100.182 27.0058V28.3009H102.124V28.6607H100.182V30.0757H102.196V30.4355H99.75V26.646H102.196V27.0058H100.182Z" fill="#888B8D"/>
<path d="M105.582 26.646H106.014V29.3082C106.014 29.7879 105.918 30.0997 105.726 30.2676C105.534 30.4115 105.126 30.4835 104.503 30.4835C103.927 30.4835 103.519 30.4115 103.327 30.2676C103.112 30.1237 103.016 29.8359 103.016 29.4282V29.3082V26.646H103.447V29.3082C103.447 29.668 103.495 29.8838 103.615 29.9798C103.735 30.0757 104.023 30.1237 104.479 30.1237C104.982 30.1237 105.294 30.0757 105.414 29.9798C105.534 29.8838 105.606 29.668 105.606 29.3082V26.646H105.582Z" fill="#888B8D"/>
<path d="M106.996 30.4595V26.646H108.819C109.227 26.646 109.514 26.7179 109.682 26.8858C109.85 27.0537 109.922 27.3176 109.922 27.7253C109.922 28.085 109.874 28.3249 109.778 28.4688C109.682 28.6127 109.514 28.7086 109.251 28.7326C109.658 28.7566 109.85 28.9964 109.85 29.4761V30.4595H109.442V29.5721C109.442 29.1164 109.251 28.9005 108.867 28.9005H108.723H107.428V30.4355H106.996V30.4595ZM107.428 28.5407H108.675C109.011 28.5407 109.227 28.4928 109.347 28.3968C109.466 28.3009 109.514 28.109 109.514 27.8452C109.514 27.5094 109.466 27.2696 109.371 27.1736C109.275 27.0777 109.083 27.0058 108.795 27.0058H107.404V28.5407H107.428Z" fill="#888B8D"/>
<path d="M113.423 27.6774H112.992C112.992 27.3656 112.944 27.1738 112.848 27.1018C112.752 27.0299 112.512 26.9819 112.128 26.9819C111.672 26.9819 111.385 27.0299 111.265 27.1018C111.145 27.1738 111.073 27.3656 111.073 27.6295C111.073 27.9413 111.121 28.1331 111.217 28.1811C111.313 28.253 111.625 28.301 112.128 28.325C112.728 28.349 113.088 28.4209 113.255 28.5409C113.423 28.6608 113.495 28.9486 113.495 29.3803C113.495 29.86 113.399 30.1478 113.207 30.2917C113.016 30.4356 112.608 30.5076 111.984 30.5076C111.433 30.5076 111.073 30.4356 110.881 30.2917C110.689 30.1478 110.617 29.884 110.617 29.4523V29.2844H111.049V29.3803C111.049 29.7161 111.097 29.9319 111.217 30.0039C111.313 30.0758 111.577 30.1238 112.008 30.1238C112.512 30.1238 112.8 30.0758 112.92 30.0039C113.04 29.9319 113.088 29.6921 113.088 29.3323C113.088 29.0925 113.04 28.9486 112.968 28.8766C112.896 28.8047 112.728 28.7567 112.488 28.7327L112.032 28.7088L111.601 28.6848C110.953 28.6368 110.641 28.301 110.641 27.6774C110.641 27.2457 110.737 26.9579 110.929 26.814C111.121 26.6701 111.481 26.5981 112.056 26.5981C112.632 26.5981 112.992 26.6701 113.159 26.79C113.327 26.9339 113.423 27.2217 113.423 27.6774Z" fill="#888B8D"/>
<path d="M118.556 27.6774H118.124C118.124 27.3656 118.076 27.1738 117.981 27.1018C117.885 27.0299 117.645 26.9819 117.261 26.9819C116.805 26.9819 116.517 27.0299 116.398 27.1018C116.278 27.1738 116.206 27.3656 116.206 27.6295C116.206 27.9413 116.254 28.1331 116.35 28.1811C116.446 28.253 116.757 28.301 117.261 28.325C117.861 28.349 118.22 28.4209 118.388 28.5409C118.556 28.6608 118.628 28.9486 118.628 29.3803C118.628 29.86 118.532 30.1478 118.34 30.2917C118.148 30.4356 117.741 30.5076 117.117 30.5076C116.565 30.5076 116.206 30.4356 116.014 30.2917C115.822 30.1478 115.75 29.884 115.75 29.4523V29.2844H116.182V29.3803C116.182 29.7161 116.23 29.9319 116.35 30.0039C116.446 30.0758 116.709 30.1238 117.141 30.1238C117.645 30.1238 117.933 30.0758 118.052 30.0039C118.172 29.9319 118.22 29.6921 118.22 29.3323C118.22 29.0925 118.172 28.9486 118.1 28.8766C118.028 28.8047 117.861 28.7567 117.621 28.7327L117.165 28.7088L116.733 28.6848C116.086 28.6368 115.774 28.301 115.774 27.6774C115.774 27.2457 115.87 26.9579 116.062 26.814C116.254 26.6701 116.613 26.5981 117.189 26.5981C117.765 26.5981 118.124 26.6701 118.292 26.79C118.46 26.9339 118.556 27.2217 118.556 27.6774Z" fill="#888B8D"/>
<path d="M119.803 26.6465V30.46H119.371V26.6465H119.803Z" fill="#888B8D"/>
<path d="M124.046 26.6465V30.46H123.351L121.744 27.8697L121.48 27.438L121.36 27.2221L121.24 27.0062V27.1502V27.2941V27.5819V30.46H120.809V26.6465H121.504L122.895 28.925L123.255 29.5246L123.447 29.8124L123.615 30.1002V29.9563V29.8124V29.5246V26.6465H124.046Z" fill="#888B8D"/>
<path d="M127.526 29.1884H127.957V29.3323C127.957 29.8599 127.861 30.1717 127.693 30.3156C127.526 30.4355 127.07 30.5075 126.35 30.5075C125.703 30.5075 125.295 30.3876 125.127 30.1717C124.959 29.9319 124.863 29.4042 124.863 28.5648C124.863 27.8932 124.887 27.4855 124.911 27.3176C124.959 27.1497 125.055 27.0058 125.247 26.8619C125.463 26.694 125.919 26.6221 126.638 26.6221C127.118 26.6221 127.454 26.694 127.621 26.8379C127.789 26.9818 127.885 27.2696 127.885 27.7014V27.7973H127.454V27.6774C127.454 27.3656 127.406 27.1737 127.31 27.0778C127.214 26.9818 126.974 26.9578 126.638 26.9578C126.015 26.9578 125.655 27.0058 125.511 27.1018C125.367 27.1977 125.319 27.4855 125.319 27.9412C125.319 29.0205 125.367 29.6441 125.463 29.812C125.559 30.0038 125.871 30.0998 126.398 30.0998C126.902 30.0998 127.214 30.0518 127.334 29.9798C127.454 29.9079 127.526 29.692 127.526 29.3802V29.1884Z" fill="#888B8D"/>
<path d="M128.963 27.0062V28.3014H130.906V28.6611H128.963V30.0762H130.978V30.436H128.531V26.6465H130.978V27.0062H128.963Z" fill="#888B8D"/>
<path d="M135.366 26.646V30.4595H134.935V26.9818L133.951 28.0611L133.688 27.7972L134.743 26.646H135.366Z" fill="#888B8D"/>
<path d="M137.141 29.4763H137.548V29.5962C137.548 29.8361 137.596 29.98 137.716 30.0279C137.836 30.0999 138.1 30.1239 138.508 30.1239C138.987 30.1239 139.275 30.0759 139.395 29.98C139.491 29.884 139.563 29.6202 139.563 29.1885V28.6129C139.419 28.8287 139.035 28.9486 138.412 28.9486C137.932 28.9486 137.596 28.8767 137.428 28.7088C137.261 28.5649 137.189 28.2531 137.189 27.8214C137.189 27.3177 137.285 26.9819 137.452 26.8141C137.62 26.6462 138.004 26.5742 138.556 26.5742C139.131 26.5742 139.515 26.6462 139.707 26.8141C139.899 26.9819 139.995 27.3177 139.995 27.8214V28.8527V29.2364C139.995 29.7161 139.899 30.0519 139.707 30.1958C139.515 30.3637 139.155 30.4357 138.58 30.4357C138.028 30.4357 137.644 30.3877 137.428 30.2678C137.237 30.1478 137.141 29.932 137.141 29.5962C137.141 29.5962 137.141 29.5482 137.141 29.4763ZM138.508 26.958C138.1 26.958 137.836 27.0059 137.74 27.1019C137.644 27.1978 137.596 27.4137 137.596 27.7974C137.596 28.1572 137.644 28.373 137.74 28.469C137.836 28.5649 138.076 28.6129 138.46 28.6129C138.963 28.6129 139.251 28.5649 139.371 28.4929C139.491 28.421 139.539 28.2291 139.539 27.8933C139.539 27.4616 139.491 27.1978 139.371 27.1019C139.275 27.0059 138.987 26.958 138.508 26.958Z" fill="#888B8D"/>
<path d="M140.906 29.4763H141.314V29.5962C141.314 29.8361 141.362 29.98 141.482 30.0279C141.602 30.0999 141.866 30.1239 142.273 30.1239C142.753 30.1239 143.041 30.0759 143.161 29.98C143.257 29.884 143.329 29.6202 143.329 29.1885V28.6129C143.185 28.8287 142.801 28.9486 142.177 28.9486C141.698 28.9486 141.362 28.8767 141.194 28.7088C141.026 28.5649 140.954 28.2531 140.954 27.8214C140.954 27.3177 141.05 26.9819 141.218 26.8141C141.386 26.6462 141.77 26.5742 142.321 26.5742C142.897 26.5742 143.281 26.6462 143.473 26.8141C143.664 26.9819 143.76 27.3177 143.76 27.8214V28.8527V29.2364C143.76 29.7161 143.664 30.0519 143.473 30.1958C143.281 30.3637 142.921 30.4357 142.345 30.4357C141.77 30.4357 141.41 30.3877 141.194 30.2678C141.002 30.1478 140.906 29.932 140.906 29.5962C140.906 29.5962 140.906 29.5482 140.906 29.4763ZM142.273 26.958C141.866 26.958 141.602 27.0059 141.506 27.1019C141.41 27.1978 141.362 27.4137 141.362 27.7974C141.362 28.1572 141.41 28.373 141.506 28.469C141.602 28.5649 141.842 28.6129 142.225 28.6129C142.729 28.6129 143.017 28.5649 143.137 28.4929C143.257 28.421 143.305 28.2291 143.305 27.8933C143.305 27.4616 143.257 27.1978 143.137 27.1019C143.041 27.0059 142.753 26.958 142.273 26.958Z" fill="#888B8D"/>
<path d="M144.674 29.4763H145.082V29.5962C145.082 29.8361 145.13 29.98 145.25 30.0279C145.37 30.0999 145.633 30.1239 146.041 30.1239C146.521 30.1239 146.809 30.0759 146.928 29.98C147.024 29.884 147.096 29.6202 147.096 29.1885V28.6129C146.952 28.8287 146.569 28.9486 145.945 28.9486C145.465 28.9486 145.13 28.8767 144.962 28.7088C144.794 28.5649 144.722 28.2531 144.722 27.8214C144.722 27.3177 144.818 26.9819 144.986 26.8141C145.154 26.6462 145.537 26.5742 146.089 26.5742C146.665 26.5742 147.048 26.6462 147.24 26.8141C147.432 26.9819 147.528 27.3177 147.528 27.8214V28.8527V29.2364C147.528 29.7161 147.432 30.0519 147.24 30.1958C147.048 30.3637 146.689 30.4357 146.113 30.4357C145.561 30.4357 145.178 30.3877 144.962 30.2678C144.77 30.1478 144.674 29.932 144.674 29.5962C144.65 29.5962 144.65 29.5482 144.674 29.4763ZM146.041 26.958C145.633 26.958 145.37 27.0059 145.274 27.1019C145.178 27.1978 145.13 27.4137 145.13 27.7974C145.13 28.1572 145.178 28.373 145.274 28.469C145.37 28.5649 145.609 28.6129 145.993 28.6129C146.497 28.6129 146.785 28.5649 146.905 28.4929C147.024 28.421 147.072 28.2291 147.072 27.8933C147.072 27.4616 147.024 27.1978 146.905 27.1019C146.785 27.0059 146.497 26.958 146.041 26.958Z" fill="#888B8D"/>
<path d="M11.5352 15.5104L14.5092 12.5364L20.5532 6.49236L15.4446 1.38375C15.2047 1.11992 14.845 1 14.5092 1C14.1494 1 13.8136 1.14391 13.5498 1.38375L11.5352 3.39841V27.6224L13.5498 29.637C14.0535 30.1407 14.9409 30.1407 15.4446 29.637L20.5532 24.5284L14.4852 18.4604L11.5352 15.5104Z" fill="#057094"/>
<path d="M28.6375 14.5754L23.5289 9.4668L17.4609 15.5108L23.5289 21.5788L28.6375 16.4702C29.1652 15.9425 29.1652 15.1031 28.6375 14.5754Z" fill="#888B8D"/>
<path d="M0.383745 14.5751C0.11992 14.8389 0 15.1747 0 15.5105C0 15.8702 0.143904 16.206 0.383745 16.4698L7.36312 23.4252V7.5957L0.383745 14.5751Z" fill="#057094"/>
<path d="M154.579 1.31934C155.25 1.31934 155.802 1.55918 156.282 2.03886C156.761 2.51854 157.001 3.09416 157.001 3.74173C157.001 4.41329 156.761 4.98891 156.282 5.4446C155.802 5.92429 155.25 6.16413 154.579 6.16413C153.907 6.16413 153.331 5.92429 152.876 5.4446C152.42 4.96492 152.156 4.3893 152.156 3.74173C152.156 3.07018 152.396 2.49456 152.876 2.03886C153.355 1.58316 153.907 1.31934 154.579 1.31934ZM154.579 1.58316C154.003 1.58316 153.499 1.79902 153.068 2.20675C152.66 2.63846 152.444 3.14213 152.444 3.74173C152.444 4.34133 152.66 4.845 153.068 5.27671C153.475 5.70843 153.979 5.92429 154.579 5.92429C155.154 5.92429 155.658 5.70843 156.066 5.27671C156.473 4.845 156.689 4.34133 156.689 3.74173C156.689 3.14213 156.473 2.63846 156.066 2.20675C155.658 1.79902 155.154 1.58316 154.579 1.58316ZM153.499 5.08484V2.37464H154.842C155.394 2.37464 155.682 2.63846 155.682 3.16611C155.682 3.54986 155.562 3.7897 155.298 3.86165C155.514 3.9336 155.634 4.1015 155.634 4.38931V5.08484H155.274V4.46125C155.274 4.17345 155.13 4.02954 154.866 4.02954H154.771H153.859V5.08484H153.499ZM153.835 3.69376H154.723C155.106 3.69376 155.298 3.54986 155.298 3.23806C155.298 2.99822 155.274 2.85432 155.202 2.78237C155.13 2.71042 155.01 2.68643 154.818 2.68643H153.835V3.69376Z" fill="#888B8D"/>
</svg>
