<svg width="40" height="38" viewBox="0 0 40 38" fill="none" xmlns="http://www.w3.org/2000/svg">
<rect x="4" y="4" width="32" height="30" rx="7" fill="white"/>
<rect x="2" y="2" width="36" height="34" rx="9" stroke="white" stroke-opacity="0.15" stroke-width="4"/>
<path fill-rule="evenodd" clip-rule="evenodd" d="M14 19.5C14 15.9101 16.9101 13 20.5 13C24.0899 13 27 15.9101 27 19.5C27 23.0899 24.0899 26 20.5 26C19.359 26 18.2855 25.7056 17.3525 25.1884C17.2954 25.1567 17.2399 25.1554 17.2003 25.1694L15.675 25.7083C14.7404 26.0386 13.8402 25.1383 14.1704 24.2038L14.7317 22.6154C14.7452 22.5772 14.7446 22.524 14.7159 22.4683C14.2582 21.578 14 20.5685 14 19.5ZM17.5097 20.286C17.9271 20.286 18.2655 19.9477 18.2655 19.5302C18.2655 19.1128 17.9271 18.7744 17.5097 18.7744C17.0923 18.7744 16.7539 19.1128 16.7539 19.5302C16.7539 19.9477 17.0923 20.286 17.5097 20.286ZM21.289 19.5302C21.289 19.9477 20.9506 20.286 20.5332 20.286C20.1157 20.286 19.7773 19.9477 19.7773 19.5302C19.7773 19.1128 20.1157 18.7744 20.5332 18.7744C20.9506 18.7744 21.289 19.1128 21.289 19.5302ZM23.5566 20.286C23.974 20.286 24.3124 19.9477 24.3124 19.5302C24.3124 19.1128 23.974 18.7744 23.5566 18.7744C23.1392 18.7744 22.8008 19.1128 22.8008 19.5302C22.8008 19.9477 23.1392 20.286 23.5566 20.286Z" fill="#252139"/>
</svg>
