<svg width="19" height="19" viewBox="0 0 19 19" fill="none" xmlns="http://www.w3.org/2000/svg">
<path id="Vector" d="M18.5589 8.46078L10.5357 0.440884C9.96865 -0.146961 9.02351 -0.146961 8.45643 0.440884L0.433226 8.46078C-0.133859 9.04862 -0.154862 9.97238 0.433226 10.5392L8.45643 18.5591C9.04452 19.147 9.96865 19.147 10.5357 18.5591L18.5589 10.5392C19.147 9.97238 19.147 9.02763 18.5589 8.46078ZM15.8495 10.4972L10.5147 15.8298C10.2417 16.1028 9.88464 16.2497 9.50659 16.2497C9.12853 16.2497 8.77148 16.1028 8.49844 15.8298L3.16363 10.4972C2.89059 10.2243 2.74357 9.86741 2.74357 9.4895C2.74357 9.1116 2.89059 8.75469 3.16363 8.48177L8.49844 3.14917C9.04452 2.60331 9.96865 2.60331 10.5147 3.14917L15.8495 8.48177C16.3956 9.04862 16.3956 9.95138 15.8495 10.4972Z" fill="url(#paint0_linear_2267_1997)"/>
<defs>
<linearGradient id="paint0_linear_2267_1997" x1="2.5" y1="-0.999996" x2="17.0376" y2="-2.33706" gradientUnits="userSpaceOnUse">
<stop offset="0.00520833" stop-color="#FF8000"/>
<stop offset="0.447917" stop-color="#FA1E54"/>
<stop offset="1" stop-color="#8AC5FF"/>
</linearGradient>
</defs>
</svg>
